<svg viewBox="0 0 14 13" version="1.1" xmlns="http://www.w3.org/2000/svg" xmlns:xlink="http://www.w3.org/1999/xlink">
  <g id="Page-1" stroke="none" stroke-width="1" fill="none" fill-rule="evenodd">
    <g id="Marketplace-Kitchen---City-Dropdown" transform="translate(-1221.000000, -245.000000)" fill="#4A4A4A" fill-rule="nonzero">
      <g id="search-bar" transform="translate(20.000000, 230.000000)">
        <path d="M1204.63292,15 C1203.7013,15 1202.77202,15.368071 1202.06295,16.1042715 C1200.64484,17.576678 1200.64653,19.9518601 1202.06295,21.4253835 L1207.74156,27.3358015 C1207.80902,27.4053245 1207.90095,27.4444444 1207.99687,27.4444444 C1208.09278,27.4444444 1208.18471,27.4053245 1208.25218,27.3358015 C1210.14717,25.368317 1212.04142,23.3985804 1213.9364,21.4310959 C1215.35453,19.9586894 1215.35453,17.5823978 1213.9364,16.1099931 C1212.51827,14.6375902 1210.20901,14.6375719 1208.79086,16.1099931 L1207.99968,16.9339055 L1207.2085,16.1042715 C1206.49941,15.368071 1205.56453,15 1204.63292,15 L1204.63292,15 Z" id="Shape-Copy-2"></path>
      </g>
    </g>
  </g>
</svg>
