<?xml version="1.0" encoding="utf-8"?>
<!-- Generator: Adobe Illustrator 22.0.0, SVG Export Plug-In . SVG Version: 6.00 Build 0)  -->
<svg version="1.1" id="Layer_1" xmlns="http://www.w3.org/2000/svg" xmlns:xlink="http://www.w3.org/1999/xlink" x="0px" y="0px"
	 viewBox="0 0 502 75" style="enable-background:new 0 0 502 75;" xml:space="preserve">
<style type="text/css">
	.st0{fill:#FF4137;}
	.st1{display:none;}
	.st2{display:inline;}
	.st3{fill:#FFFFFF;}
	.st4{clip-path:url(#SVGID_5_);}
	.st5{clip-path:url(#SVGID_6_);fill:#FFFFFF;}
</style>
<g id="Layer_1_1_">
	<g>
		<path class="st0" d="M64.2,19.7L38.1,48.1h-2.6l-26-28v54.2H1V0.7h2.5l33.4,36.1L70.5,0.7h2.2v73.5h-8.4V19.7z"/>
		<path class="st0" d="M136.7,42h-40v24.3h45.4v7.9H88.2V0.7h53.9v7.9H96.7V34h40V42z"/>
		<path class="st0" d="M189.1,0.7h2l36.3,73.5h-9.8L211,61.5h-41.8l-6.5,12.8H153L189.1,0.7z M190.6,18.1h-1L174,52.2l-0.6,1.1h33.4
			l-0.6-1.1L190.6,18.1z"/>
		<path class="st0" d="M238.2,74.3V0.7h8.6v65.6h42.9v7.9L238.2,74.3L238.2,74.3z"/>
		<path class="st0" d="M364.9,25.9c0,17.2-12.8,26.3-31,26.3h-17.5v22.1h-14.8V0.7h33.4C353.4,0.7,364.9,9.9,364.9,25.9z
			 M334.3,13.7h-17.9v25.8h18c9.6,0,15.3-4,15.3-13C349.8,18.1,343.9,13.7,334.3,13.7z"/>
		<path class="st0" d="M396.3,0.7h2.6l37.9,73.5h-16.8l-4.8-10.1H380l-4.7,10.1h-16.8L396.3,0.7z M398,27.6h-1l-11.1,24l-0.9,1.6h25
			l-0.9-1.6L398,27.6z"/>
		<path class="st0" d="M446.9,74.3V0.7h14.8v60.5H501v13H446.9z"/>
	</g>
</g>
<g id="Layer_2_1_" class="st1">
	<g class="st2">
		<path class="st3" d="M113.5,49.9L76.8,90h-3.6L36.5,50.5v76.2H24.4V23.1h3.5L75,73.9l47.3-50.8h3.1v103.6h-11.9V49.9z"/>
		<path class="st3" d="M215.8,81.3h-56.3v34.2h63.9v11.2h-76V23.1h76v11.2h-63.9V70h56.3V81.3z"/>
		<path class="st3" d="M289.5,23.1h2.8l51.1,103.6h-13.8l-9.2-18h-58.9l-9.2,18h-13.6L289.5,23.1z M291.6,47.6h-1.4l-21.9,48
			l-0.9,1.6h47.1l-0.9-1.6L291.6,47.6z"/>
		<path class="st3" d="M358.6,126.7V23.1h12.1v92.4h60.4v11.2H358.6z"/>
		<path class="st3" d="M537.3,58.7c0,24.2-18,37-43.7,37h-24.7v31H448V23.1h47C521,23.1,537.3,36.1,537.3,58.7z M494.1,41.4h-25.2
			v36.4h25.4c13.5,0,21.6-5.7,21.6-18.3C516,47.6,507.6,41.4,494.1,41.4z"/>
		<path class="st3" d="M581.5,23.1h3.6l53.4,103.6h-23.7l-6.7-14.2h-49.6l-6.5,14.2h-23.7L581.5,23.1z M584,60.9h-1.4l-15.7,33.8
			l-1.2,2.2h35.2l-1.2-2.2L584,60.9z"/>
		<path class="st3" d="M652.8,126.7V23.1h20.9v85.3H729v18.3H652.8z"/>
	</g>
	<g class="st2">
		<g>
			<defs>
				<rect id="SVGID_1_" x="-216.4" y="-73.4" width="194.9" height="234.9"/>
			</defs>
			<clipPath id="SVGID_2_">
				<use xlink:href="#SVGID_1_"  style="overflow:visible;"/>
			</clipPath>
		</g>
		<g>
			<defs>
				<rect id="SVGID_3_" x="-216.4" y="-73.4" width="194.9" height="234.9"/>
			</defs>
			<defs>
				<path id="SVGID_4_" d="M-84.4,152.4h-69.3c-2.5,0-4.6,2-4.6,4.6c0,2.5,2,4.6,4.6,4.6h69.3c2.5,0,4.6-2,4.6-4.6
					C-79.8,154.4-81.9,152.4-84.4,152.4L-84.4,152.4L-84.4,152.4z M-63.2,136.6h-111.7c-2.5,0-4.6,2-4.6,4.6c0,2.5,2,4.6,4.6,4.6
					h111.7c2.5,0,4.6-2,4.6-4.6S-60.7,136.6-63.2,136.6L-63.2,136.6L-63.2,136.6z M-27.2,15.7c-3,0-5.5,2.5-5.5,5.5v15.3
					c0,2.1-1.8,3.9-3.9,3.9h-10.2C-49.2,36-53.9,33-59.4,33c-0.1,0-0.1,0-0.2,0l0,0h-118.9l0,0c-0.1,0-0.1,0-0.2,0
					c-5.4,0-10.1,3-12.6,7.4h-10.3c-8.2,0-14.8,6.7-14.8,14.8v15.3c0,3,2.5,5.5,5.5,5.5s5.5-2.5,5.5-5.5V55.2c0-2.1,1.8-3.9,3.9-3.9
					h8.9c1.1,3.9,3.8,7.2,7.4,9l-14.1,56.4c-2.3,6.3,1.3,13.5,6.7,13.5h147.4c5.4,0,9-7.2,6.7-13.5l-14.1-56.4
					c3.6-1.8,6.3-5.1,7.4-9h8.9c8.2,0,14.8-6.7,14.8-14.8V21.2C-21.7,18.2-24.2,15.7-27.2,15.7L-27.2,15.7z M-95.7,99h-9.1V72.1
					L-118,85.5h-1.8l-13.3-13.4V99h-9.2V53.4h2.5l20.8,20.5l21-20.5h2.4L-95.7,99L-95.7,99z M-113.1-58.7
					c29.9,3,53.4,28.4,53.4,59.1V14h2.6c2.6,0,4.7,2.1,4.7,4.7c0,2.6-2.1,4.7-4.7,4.7h-124c-2.6,0-4.7-2.1-4.7-4.7
					c0-2.6,2.1-4.7,4.7-4.7h2.6V0.4c0-30.7,23.5-56.1,53.4-59.1c-1.6-1.6-2.6-3.7-2.6-6.1c0-4.7,3.8-8.6,8.6-8.6
					c4.7,0,8.6,3.8,8.6,8.6C-110.5-62.4-111.5-60.3-113.1-58.7L-113.1-58.7L-113.1-58.7z M-95.3-34.2c9.1,0,16.5,7.4,16.5,16.5
					S-86.2-1.2-95.3-1.2s-16.5-7.4-16.5-16.5S-104.4-34.2-95.3-34.2L-95.3-34.2L-95.3-34.2L-95.3-34.2z M-142.8-34.2
					c9.1,0,16.5,7.4,16.5,16.5s-7.4,16.5-16.5,16.5s-16.5-7.4-16.5-16.5S-152-34.2-142.8-34.2L-142.8-34.2L-142.8-34.2L-142.8-34.2z
					 M-142.8-7.6c5.6,0,10.2-4.6,10.2-10.2c0-5.6-4.6-10.2-10.2-10.2c-5.6,0-10.2,4.6-10.2,10.2C-153-12.1-148.5-7.6-142.8-7.6
					L-142.8-7.6L-142.8-7.6L-142.8-7.6z M-95.3-7.6c5.6,0,10.2-4.6,10.2-10.2c0-5.6-4.6-10.2-10.2-10.2s-10.2,4.6-10.2,10.2
					C-105.5-12.1-100.9-7.6-95.3-7.6L-95.3-7.6L-95.3-7.6z M-119.2,9.3c2.1,0,3.9-0.2,6.6-0.6h-0.2c1.2-0.3,1.4-0.4,1.8-0.6
					c0.5-0.3,0.9-0.7,1.2-1.3l0.7-1.4c0.8-1.5,2.6-2.1,4.1-1.3s2.1,2.6,1.3,4.1l0.1-0.4c0,0.1-0.4,1-0.5,1.3c-0.4,0.8-1,1.7-1.8,2.5
					c-2.6,2.8-6.5,3.7-13.4,3.7h-0.4c-6.9,0-10.9-0.9-13.4-3.7c-0.7-0.8-1.3-1.6-1.8-2.5c-0.2-0.3-0.5-1.2-0.5-1.3l0.1,0.4
					c-0.8-1.5-0.2-3.4,1.3-4.1c1.5-0.8,3.4-0.2,4.1,1.3l0.7,1.5c0.3,0.6,0.7,1,1.2,1.3s0.7,0.3,1.8,0.6h-0.2
					c2.7,0.4,4.5,0.6,6.6,0.6C-119.5,9.3-119.3,9.3-119.2,9.3L-119.2,9.3L-119.2,9.3z"/>
			</defs>
			<clipPath id="SVGID_5_">
				<use xlink:href="#SVGID_3_"  style="overflow:visible;"/>
			</clipPath>
			<clipPath id="SVGID_6_" class="st4">
				<use xlink:href="#SVGID_4_"  style="overflow:visible;"/>
			</clipPath>
			<rect x="-217.7" y="-74.6" class="st5" width="197.2" height="237.4"/>
		</g>
	</g>
</g>
</svg>
