<?xml version="1.0" encoding="UTF-8"?>
<svg width="26px" height="26px" viewBox="0 0 26 26" version="1.1" xmlns="http://www.w3.org/2000/svg" xmlns:xlink="http://www.w3.org/1999/xlink">
    <!-- Generator: Sketch 48.2 (47327) - http://www.bohemiancoding.com/sketch -->
    <title>Page 1</title>
    <desc>Created with Sketch.</desc>
    <defs>
        <polygon id="path-1" points="0.18874126 0.250144099 5.53416149 0.250144099 5.53416149 1.33115053 0.18874126 1.33115053"></polygon>
    </defs>
    <g id="lunch-+-workspace-tabs---dinner-mkts---menu" stroke="none" stroke-width="1" fill="none" fill-rule="evenodd" transform="translate(-1258.000000, -133.000000)">
        <g id="Group-2" transform="translate(1245.000000, 98.000000)">
            <g id="Group-12" transform="translate(0.000000, 22.000000)">
                <g id="Page-1" transform="translate(13.000000, 13.000000)">
                    <path d="M12.9246125,18.1301502 C10.0270837,18.1301502 7.66979441,15.772861 7.66979441,12.8753321 C7.66979441,9.97780328 10.0270837,7.62051402 12.9246125,7.62051402 C15.8221413,7.62051402 18.1794306,9.97780328 18.1794306,12.8753321 C18.1794306,15.772861 15.8221413,18.1301502 12.9246125,18.1301502 M12.9246125,6.54240665 C9.42702245,6.54240665 6.59195058,9.37774206 6.59195058,12.8750686 C6.59195058,16.3726587 9.42728598,19.2077305 12.9246125,19.2077305 C16.421939,19.2077305 19.257538,16.3723951 19.257538,12.8750686 C19.257538,9.37774206 16.4222026,6.54240665 12.9246125,6.54240665" id="Fill-1" fill="#FF4338"></path>
                    <path d="M5.34552564,12.9130435 C5.34552564,12.6144623 5.10360373,12.3725404 4.80502254,12.3725404 L0.540555812,12.3725404 C0.241974623,12.3725404 5.27062999e-05,12.6144623 5.27062999e-05,12.9130435 C5.27062999e-05,13.2116247 0.241974623,13.4535466 0.540555812,13.4535466 L4.80502254,13.4535466 C5.10360373,13.4538101 5.34552564,13.2116247 5.34552564,12.9130435" id="Fill-3" fill="#FF4338"></path>
                    <g id="Group-7" transform="translate(20.291925, 12.122449)">
                        <mask id="mask-2" fill="white">
                            <use xlink:href="#path-1"></use>
                        </mask>
                        <g id="Clip-6"></g>
                        <path d="M4.99371109,0.250144099 L0.728980834,0.250144099 C0.430663177,0.250144099 0.18874126,0.492329547 0.18874126,0.790647205 C0.18874126,1.08922839 0.430663177,1.33115031 0.728980834,1.33115031 L4.99371109,1.33115031 C5.29229228,1.33141384 5.5342142,1.08922839 5.5342142,0.790647205 C5.5342142,0.492066016 5.29229228,0.250144099 4.99371109,0.250144099" id="Fill-5" fill="#FF4338" mask="url(#mask-2)"></path>
                    </g>
                    <path d="M12.9130435,20.4805613 C12.6144623,20.4805613 12.3725404,20.7224832 12.3725404,21.021328 L12.3725404,25.2857947 C12.3725404,25.5841123 12.6144623,25.8260343 12.9130435,25.8260343 C13.2116247,25.8260343 13.4535466,25.5841123 13.4535466,25.2855311 L13.4535466,21.0210644 C13.4538101,20.7224832 13.2116247,20.4805613 12.9130435,20.4805613" id="Fill-8" fill="#FF4338"></path>
                    <path d="M12.9130435,5.34552564 C13.2116247,5.34552564 13.4535466,5.10360373 13.4535466,4.80502254 L13.4535466,0.540555812 C13.4538101,0.241974623 13.2116247,5.27062999e-05 12.9130435,5.27062999e-05 C12.6144623,5.27062999e-05 12.3725404,0.241974623 12.3725404,0.540819343 L12.3725404,4.80528607 C12.3725404,5.10360373 12.6144623,5.34552564 12.9130435,5.34552564" id="Fill-10" fill="#FF4338"></path>
                    <path d="M6.79750515,18.2639715 L3.78217773,21.2792989 C3.571089,21.4903877 3.571089,21.8327151 3.78217773,22.0440673 C3.99326646,22.2551561 4.33559388,22.2551561 4.54668261,22.0440673 L7.56201003,19.0284764 C7.77309876,18.8176512 7.77309876,18.4753238 7.56201003,18.2639715 C7.3509213,18.0528828 7.00859388,18.0528828 6.79750515,18.2639715" id="Fill-12" fill="#FF4338"></path>
                    <path d="M19.0285818,7.56198367 L22.0439092,4.54665626 C22.254998,4.33556752 22.254998,3.99324011 22.0439092,3.78215138 C21.8328205,3.57106264 21.4904931,3.57106264 21.2794043,3.78215138 L18.2640769,6.79747879 C18.0529882,7.00856752 18.0529882,7.35089494 18.2640769,7.56198367 C18.4751657,7.7730724 18.8174931,7.7730724 19.0285818,7.56198367" id="Fill-14" fill="#FF4338"></path>
                    <path d="M19.0285818,18.2639715 C18.8174931,18.0528828 18.4751657,18.0528828 18.2640769,18.2639715 C18.0529882,18.4753238 18.0529882,18.8176512 18.2640769,19.0284764 L21.2794043,22.0440673 C21.4904931,22.2551561 21.8328205,22.2551561 22.0439092,22.0440673 C22.254998,21.8327151 22.254998,21.4903877 22.0439092,21.2792989 L19.0285818,18.2639715 Z" id="Fill-16" fill="#FF4338"></path>
                    <path d="M6.79750515,7.56198367 C7.00859388,7.7730724 7.3509213,7.7730724 7.56201003,7.56198367 C7.77309876,7.35089494 7.77309876,7.00856752 7.56201003,6.79747879 L4.54668261,3.78215138 C4.33559388,3.57106264 3.99326646,3.57106264 3.78217773,3.78215138 C3.571089,3.99324011 3.571089,4.33556752 3.78217773,4.54665626 L6.79750515,7.56198367 Z" id="Fill-18" fill="#FF4338"></path>
                </g>
            </g>
        </g>
    </g>
</svg>