<?xml version="1.0" encoding="UTF-8"?>
<svg width="22px" height="22px" viewBox="0 0 22 22" version="1.1" xmlns="http://www.w3.org/2000/svg" xmlns:xlink="http://www.w3.org/1999/xlink">
    <!-- Generator: Sketch 48.2 (47327) - http://www.bohemiancoding.com/sketch -->
    <title>Fill 1</title>
    <desc>Created with Sketch.</desc>
    <defs></defs>
    <g id="lunch-+-workspace-tabs---dinner-mkts---menu" stroke="none" stroke-width="1" fill="none" fill-rule="evenodd" transform="translate(-1258.000000, -170.000000)">
        <g id="Group-2" transform="translate(1245.000000, 98.000000)" fill="#430098">
            <g id="Group-12" transform="translate(0.000000, 22.000000)">
                <path d="M29.5936171,52 C29.8440516,52.2187416 30.1023122,52.4372307 30.3269964,52.6630448 C34.8643549,57.2167099 35.2523769,64.0482179 31.1871077,68.1280271 C27.1215861,72.2078362 20.2023227,71.9259475 15.6707707,67.3780919 C15.4405325,67.147226 15.222917,66.8777141 15,66.6200738 C19.314189,68.4010752 24.2413367,67.8175958 27.5111228,64.5359663 C30.7768697,61.2588833 31.3597863,56.32482 29.5936171,52 M28.2096591,50.0004312 C27.9336592,50.0124313 27.7201593,50.245932 27.7321593,50.521933 C27.7356593,50.6054332 27.7604093,50.6866835 27.8036592,50.7581837 C30.4621584,55.0871981 30.2551584,60.5167162 26.8739096,63.9082274 C23.4929107,67.2997387 18.0889125,67.5119894 13.7736639,64.8459806 C13.542914,64.6944801 13.2329141,64.7592303 13.0816641,64.990481 C12.9739142,65.1549816 12.9726642,65.3677323 13.0786641,65.5334829 C13.626914,66.4277358 14.3791637,67.3557389 15.1486635,68.1274915 C19.9829118,72.9765076 27.4859093,73.3257588 31.9281579,68.8697439 C36.3704064,64.4137291 35.9131565,56.9924545 31.0844082,52.1489384 C30.3151584,51.3771858 29.3906587,50.6286833 28.498659,50.0784315 C28.412909,50.0234313 28.3116591,49.9961812 28.2096591,50.0004312" id="Fill-1"></path>
            </g>
        </g>
    </g>
</svg>