<svg viewBox="0 0 40 40" version="1.1" xmlns="http://www.w3.org/2000/svg" xmlns:xlink="http://www.w3.org/1999/xlink">
    <g stroke="none" stroke-width="1" fill="none" fill-rule="evenodd">
        <g transform="translate(-88.000000, -163.000000)" fill="#D9D9D9" fill-rule="nonzero">
            <g transform="translate(0.000000, 7.000000)">
                <g transform="translate(10.000000, 87.000000)">
                    <g transform="translate(1.000000, 24.000000)">
                        <g transform="translate(77.000000, 45.000000)">
                            <path d="M16.1377614,7.80368098 C16.6297663,7.36196319 17.4169742,7.36196319 17.9089791,7.85276074 C18.3517835,8.29447853 18.3517835,9.0797546 17.8597786,9.57055215 L16.5805658,10.8466258 C16.0885609,11.2883436 15.301353,11.2883436 14.8585486,10.8466258 C14.3665437,10.3558282 14.3665437,9.57055215 14.8585486,9.0797546 L16.1377614,7.80368098 Z M37.4415744,16.7361963 C37.4907749,16.2944785 37.4907749,15.803681 37.4907749,15.3619632 C37.4907749,12.3190184 36.3591636,9.47239264 34.4403444,7.21472393 C32.5215252,4.95705521 29.8154982,3.28834356 26.6666667,2.6993865 C25.8302583,2.55214724 24.895449,2.45398773 24.0098401,2.45398773 L15.9901599,2.45398773 C15.0553506,2.45398773 14.1697417,2.55214724 13.3333333,2.6993865 C10.1845018,3.28834356 7.47847478,4.95705521 5.5596556,7.21472393 C3.64083641,9.47239264 2.50922509,12.3190184 2.50922509,15.3619632 C2.50922509,15.803681 2.50922509,16.2944785 2.55842558,16.7361963 L37.4415744,16.7361963 Z M39.9507995,15.3619632 C39.9507995,16.2453988 39.8523985,17.1779141 39.704797,18.1104294 C39.6063961,18.6993865 39.1635916,19.1411043 38.5731857,19.190184 L38.5731857,21.1042945 L38.5731857,23.3619632 C38.7207872,23.4601227 38.8683887,23.5582822 38.9667897,23.7055215 C39.6063961,24.2944785 40,25.1779141 40,26.1104294 C40,27.0429448 39.6063961,27.8773006 38.9667897,28.5153374 L38.9175892,28.5644172 C38.8191882,28.6625767 38.6715867,28.7607362 38.5731857,28.8588957 L38.5731857,31.0184049 L38.6715867,31.1165644 C39.0651907,31.607362 39.4095941,32.0981595 39.6063961,32.6871166 C39.8523985,33.3251534 40,33.9631902 40,34.6503067 C40,36.1226994 39.4095941,37.4478528 38.4255843,38.4294479 C37.4415744,39.4110429 36.0639606,40 34.5879459,40 L5.41205412,40 C3.88683887,40 2.55842558,39.4110429 1.57441574,38.4294479 C0.590405904,37.4478528 0,36.1226994 0,34.6503067 C0,33.9631902 0.098400984,33.3251534 0.344403444,32.6871166 C0.590405904,32.0981595 0.934809348,31.5092025 1.42681427,31.0184049 L1.42681427,28.8588957 C1.27921279,28.7607362 1.13161132,28.6625767 0.98400984,28.5153374 L0.934809348,28.4171779 C0.344403444,27.8282209 0,26.993865 0,26.1104294 C0,25.1779141 0.393603936,24.2944785 0.98400984,23.7055215 C1.13161132,23.5582822 1.27921279,23.4601227 1.42681427,23.3619632 L1.42681427,21.1042945 L1.42681427,19.190184 C0.885608856,19.1411043 0.393603936,18.7484663 0.295202952,18.208589 C0.098400984,17.2269939 0.049200492,16.2944785 0.049200492,15.3619632 C0.049200492,11.7300613 1.37761378,8.29447853 3.6900369,5.64417178 C5.95325953,2.94478528 9.15129151,0.981595092 12.8413284,0.294478528 C13.8745387,0.0981595092 14.9077491,0 15.9901599,0 L24.0098401,0 C25.0430504,0 26.1254613,0.0981595092 27.1586716,0.294478528 C30.8487085,0.981595092 34.0467405,2.94478528 36.3099631,5.64417178 C38.6223862,8.29447853 39.9507995,11.7300613 39.9507995,15.3619632 Z M36.1131611,19.190184 L31.5375154,19.190184 L31.5375154,19.8773006 L36.1131611,19.8773006 L36.1131611,19.190184 Z M29.0774908,19.190184 L23.2718327,19.190184 L23.2718327,19.8773006 L29.0774908,19.8773006 L29.0774908,19.190184 Z M20.8118081,19.190184 L3.88683887,19.190184 L3.88683887,19.8773006 L20.8118081,19.8773006 L20.8118081,19.190184 Z M12.7429274,24.196319 L13.3825338,23.2147239 C13.6285363,22.8711656 14.0221402,22.7239264 14.4157442,22.7239264 L14.4157442,22.6748466 L36.1131611,22.6748466 L36.1131611,22.3312883 L30.3075031,22.3312883 L22.0418204,22.3312883 L3.88683887,22.3312883 L3.88683887,22.6748466 L11.0701107,22.6748466 C11.9557196,22.6748466 12.3493235,23.5582822 12.7429274,24.196319 Z M36.1131611,29.4969325 L3.88683887,29.4969325 L3.88683887,30.6257669 L25.0922509,30.6257669 C25.5350554,30.6257669 25.9778598,30.8711656 26.1746617,31.2638037 L27.6506765,33.5705521 L29.4710947,31.1165644 C29.6678967,30.8220859 30.0615006,30.6257669 30.4551046,30.6257669 L36.1131611,30.6257669 L36.1131611,29.4969325 Z M11.7589176,27.0429448 L10.4305043,25.1288344 L3.44403444,25.1288344 C3.29643296,25.1288344 3.19803198,25.1779141 3.099631,25.2269939 L3.0504305,25.2269939 C2.95202952,25.2760736 2.80442804,25.3251534 2.70602706,25.4233129 C2.55842558,25.6196319 2.4600246,25.8650307 2.4600246,26.1104294 C2.4600246,26.3558282 2.50922509,26.5521472 2.65682657,26.7484663 L2.70602706,26.7484663 C2.80442804,26.8466258 2.95202952,26.9447853 3.0504305,26.993865 L3.099631,26.993865 C3.19803198,27.0429448 3.29643296,27.0429448 3.44403444,27.0429448 L11.7589176,27.0429448 Z M13.7761378,27.0429448 L36.5559656,27.0429448 C36.6543665,27.0429448 36.801968,27.0429448 36.900369,26.993865 L36.9495695,26.993865 C37.0479705,26.9447853 37.1463715,26.8957055 37.2447724,26.797546 L37.2447724,26.7484663 C37.4415744,26.601227 37.5399754,26.3558282 37.5399754,26.1104294 C37.5399754,25.8650307 37.4415744,25.6196319 37.2447724,25.4233129 C37.1463715,25.3251534 37.0479705,25.2760736 36.9495695,25.2269939 L36.900369,25.2269939 C36.801968,25.1779141 36.6543665,25.1288344 36.5559656,25.1288344 L15.0553506,25.1288344 L13.7761378,27.0429448 Z M24.403444,33.0797546 L2.90282903,33.0797546 C2.80442804,33.2269939 2.70602706,33.4233129 2.65682657,33.6196319 C2.50922509,33.9141104 2.4600246,34.2576687 2.4600246,34.6503067 C2.4600246,35.4355828 2.75522755,36.1717791 3.29643296,36.6625767 C3.83763838,37.202454 4.57564576,37.5460123 5.41205412,37.5460123 L34.5879459,37.5460123 C35.4243542,37.5460123 36.1623616,37.202454 36.703567,36.6625767 C37.195572,36.1717791 37.5399754,35.4355828 37.5399754,34.6503067 C37.5399754,34.2576687 37.4907749,33.9141104 37.3431734,33.6196319 C37.2939729,33.4233129 37.195572,33.2269939 37.097171,33.0797546 L31.0455105,33.0797546 L28.5854859,36.4662577 C28.0934809,37.1042945 27.0110701,37.1042945 26.5682657,36.3680982 L24.403444,33.0797546 Z M14.2681427,4.71165644 C14.7109471,5.20245399 14.7109471,5.98773006 14.2681427,6.42944785 C13.7761378,6.9202454 12.9889299,6.9202454 12.5461255,6.47852761 L11.2177122,5.20245399 C10.7257073,4.71165644 10.7257073,3.92638037 11.2177122,3.43558282 C11.7097171,2.99386503 12.4477245,2.94478528 12.9397294,3.43558282 L14.2681427,4.71165644 Z M21.500615,4.71165644 C21.9926199,5.20245399 21.9926199,5.98773006 21.500615,6.42944785 C21.0578106,6.9202454 20.2706027,6.9202454 19.7785978,6.47852761 L18.499385,5.20245399 C18.0073801,4.71165644 18.0073801,3.92638037 18.4501845,3.43558282 C18.9421894,2.99386503 19.7293973,2.94478528 20.2214022,3.43558282 L21.500615,4.71165644 Z M28.7330873,4.71165644 C29.2250923,5.20245399 29.2250923,5.98773006 28.7822878,6.42944785 C28.2902829,6.9202454 27.503075,6.9202454 27.0110701,6.47852761 L25.7318573,5.20245399 C25.2398524,4.71165644 25.2398524,3.92638037 25.7318573,3.43558282 C26.1746617,2.99386503 26.9618696,2.94478528 27.4538745,3.43558282 L28.7330873,4.71165644 Z M8.90528905,7.80368098 C9.39729397,7.36196319 10.1353014,7.36196319 10.6273063,7.85276074 C11.1193112,8.29447853 11.1193112,9.0797546 10.6273063,9.57055215 L9.29889299,10.8466258 C8.85608856,11.2883436 8.06888069,11.2883436 7.57687577,10.8466258 C7.13407134,10.3558282 7.13407134,9.57055215 7.57687577,9.0797546 L8.90528905,7.80368098 Z M30.6519065,7.80368098 C31.1439114,7.36196319 31.9311193,7.36196319 32.3739237,7.85276074 C32.8659287,8.29447853 32.8659287,9.0797546 32.3739237,9.57055215 L31.0947109,10.8466258 C30.602706,11.2883436 29.8154982,11.2883436 29.3726937,10.8466258 C28.8806888,10.3558282 28.8806888,9.57055215 29.3726937,9.0797546 L30.6519065,7.80368098 Z M23.4194342,7.80368098 C23.9114391,7.36196319 24.6494465,7.36196319 25.1414514,7.85276074 C25.6334563,8.29447853 25.6334563,9.0797546 25.1414514,9.57055215 L23.8130381,10.8466258 C23.3702337,11.2883436 22.5830258,11.2883436 22.0910209,10.8466258 C21.599016,10.3558282 21.6482165,9.57055215 22.0910209,9.0797546 L23.4194342,7.80368098 Z" id="Shape"></path>
                        </g>
                    </g>
                </g>
            </g>
        </g>
    </g>
</svg>
