<svg viewBox="0 0 51 34" version="1.1" xmlns="http://www.w3.org/2000/svg" xmlns:xlink="http://www.w3.org/1999/xlink">
    <g stroke="none" stroke-width="1" fill="none" fill-rule="evenodd">
        <g transform="translate(-308.000000, -164.000000)" fill="#D9D9D9" fill-rule="nonzero" stroke="#D9D9D9" stroke-width="0.5">
            <g transform="translate(0.000000, 7.000000)">
                <g transform="translate(236.000000, 87.000000)">
                    <g transform="translate(1.000000, 24.000000)">
                        <g transform="translate(72.000000, 46.000000)">
                            <g>
                                <path d="M24.7713333,8.96458333 C13.2996667,8.96458333 3.37883333,17.50625 1.69383333,28.83375 C1.59466667,29.50125 1.788,30.17375 2.2255,30.68125 C2.66133333,31.18625 3.268,31.4645833 3.9355,31.4645833 L45.608,31.4645833 C46.2746667,31.4645833 46.8821667,31.18625 47.318,30.68125 C47.7546667,30.17375 47.9488333,29.50125 47.8496667,28.83375 C46.1646667,17.50625 36.243,8.96458333 24.7713333,8.96458333 M45.608,33.13125 L3.9355,33.13125 C2.79216667,33.13125 1.70966667,32.6345833 0.963,31.7695833 C0.208833333,30.8945833 -0.125333333,29.7354167 0.0446666667,28.58875 C1.8505,16.45125 12.4805,7.29791667 24.7713333,7.29791667 C37.0621667,7.29791667 47.6921667,16.45125 49.498,28.58875 C49.6688333,29.7354167 49.3338333,30.8945833 48.5796667,31.7695833 C47.8338333,32.6345833 46.7505,33.13125 45.608,33.13125" id="Shape"></path>
                                <path d="M25.6046667,25.63125 L24.7713333,25.63125 C24.3113333,25.63125 23.938,25.2579167 23.938,24.7979167 C23.938,24.3379167 24.3113333,23.9645833 24.7713333,23.9645833 L25.6046667,23.9645833 C26.0646667,23.9645833 26.438,24.3379167 26.438,24.7979167 C26.438,25.2579167 26.0646667,25.63125 25.6046667,25.63125" id="Path"></path>
                                <path d="M32.2713333,25.63125 L31.438,25.63125 C30.978,25.63125 30.6046667,25.2579167 30.6046667,24.7979167 C30.6046667,24.3379167 30.978,23.9645833 31.438,23.9645833 L32.2713333,23.9645833 C32.7313333,23.9645833 33.1046667,24.3379167 33.1046667,24.7979167 C33.1046667,25.2579167 32.7313333,25.63125 32.2713333,25.63125" id="Path"></path>
                                <path d="M18.938,25.63125 L18.1046667,25.63125 C17.6446667,25.63125 17.2713333,25.2579167 17.2713333,24.7979167 C17.2713333,24.3379167 17.6446667,23.9645833 18.1046667,23.9645833 L18.938,23.9645833 C19.398,23.9645833 19.7713333,24.3379167 19.7713333,24.7979167 C19.7713333,25.2579167 19.398,25.63125 18.938,25.63125" id="Path"></path>
                                <path d="M28.938,20.63125 L28.1046667,20.63125 C27.6446667,20.63125 27.2713333,20.2579167 27.2713333,19.7979167 C27.2713333,19.3379167 27.6446667,18.9645833 28.1046667,18.9645833 L28.938,18.9645833 C29.398,18.9645833 29.7713333,19.3379167 29.7713333,19.7979167 C29.7713333,20.2579167 29.398,20.63125 28.938,20.63125" id="Path"></path>
                                <path d="M22.2713333,20.63125 L21.438,20.63125 C20.978,20.63125 20.6046667,20.2579167 20.6046667,19.7979167 C20.6046667,19.3379167 20.978,18.9645833 21.438,18.9645833 L22.2713333,18.9645833 C22.7313333,18.9645833 23.1046667,19.3379167 23.1046667,19.7979167 C23.1046667,20.2579167 22.7313333,20.63125 22.2713333,20.63125" id="Path"></path>
                                <path d="M2.25058333,26.1928333 C2.15141667,26.5595 1.81808333,26.8086667 1.44725,26.8086667 C1.40975,26.8086667 1.37308333,26.8061667 1.33558333,26.8011667 C0.921416667,26.7461667 0.61225,26.392 0.613083333,25.9736667 L0.628083333,16.952 C0.72975,15.8736667 1.10641667,14.9253333 1.72058333,14.1286667 C1.88558333,13.9153333 2.15141667,13.8011667 2.41391667,13.8053333 C2.68475,13.8153333 2.93225,13.957 3.07975,14.1836667 L2.50141667,16.1186667 C2.39225,16.412 2.32141667,16.7195 2.29058333,17.0345 L2.28558333,21.3711667 L2.25058333,26.1928333 Z" id="Path"></path>
                                <path d="M46.4636667,14.1835 C46.6111667,13.9568333 46.8586667,13.816 47.1286667,13.8051667 C47.3995,13.8026667 47.6578333,13.9151667 47.822,14.1285 C48.437,14.9251667 48.8128333,15.8735 48.9111667,16.8718333 L48.9303333,25.9735 C48.9311667,26.3918333 48.622,26.746 48.207,26.801 C48.1703333,26.806 48.1328333,26.8085 48.0961667,26.8085 C47.7245,26.8085 47.392,26.5601667 47.2928333,26.1926667 L47.2561667,21.3668333 L47.2478333,16.9543333 C47.2195,16.6793333 47.1503333,16.3951667 47.0445,16.1151667 L46.4636667,14.1835 Z" id="Path"></path>
                                <path d="M9.83275,7.17708333 C9.62691667,7.05375 9.48441667,6.84791667 9.44108333,6.61208333 C9.39775,6.37625 9.45858333,6.13291667 9.60691667,5.94458333 C11.14525,4.00208333 13.6835833,3.33125 15.9294167,4.26375 C15.95275,4.27208333 15.9769167,4.28125 15.9960833,4.29041667 C16.2119167,4.38625 16.37775,4.56958333 16.45025,4.79458333 C16.5235833,5.01875 16.49775,5.26375 16.3794167,5.46875 L14.4019167,5.55958333 C13.3785833,5.40958333 12.3510833,5.69458333 11.53775,6.34958333 L9.83275,7.17708333 Z" id="Path"></path>
                                <path d="M19.6464167,5.25083333 C19.4014167,5.10916667 19.2455833,4.85333333 19.2305833,4.57083333 C19.2164167,4.28916667 19.3464167,4.01833333 19.5755833,3.85333333 C19.9080833,3.61333333 20.1914167,3.33833333 20.4180833,3.035 C21.46725,1.635 23.0530833,0.8325 24.7714167,0.8325 C26.4889167,0.8325 28.0755833,1.635 29.1239167,3.03416667 C29.3514167,3.33833333 29.6355833,3.61416667 29.96725,3.8525 C30.1964167,4.01833333 30.3264167,4.28833333 30.31225,4.57083333 C30.2980833,4.85333333 30.1414167,5.10916667 29.8964167,5.25083333 L28.07225,4.37916667 C27.9730833,4.2675 27.8789167,4.1525 27.78975,4.03416667 C27.05975,3.05833333 25.9589167,2.49916667 24.7714167,2.49916667 C23.5839167,2.49916667 22.4830833,3.05833333 21.75225,4.03416667 C21.6639167,4.1525 21.56975,4.2675 21.46975,4.37916667 L19.6464167,5.25083333 Z" id="Path"></path>
                                <path d="M33.16325,5.4685 C33.0449167,5.2635 33.0199167,5.0185 33.0924167,4.79433333 C33.16575,4.56933333 33.33075,4.386 33.5465833,4.29016667 C33.56575,4.28183333 33.5890833,4.27266667 33.6124167,4.26433333 C35.86075,3.32933333 38.3974167,4.00266667 39.9349167,5.94516667 C40.0840833,6.13266667 40.1449167,6.376 40.1015833,6.61183333 C40.05825,6.84766667 39.91575,7.0535 39.7099167,7.17683333 L38.0074167,6.35183333 C37.1899167,5.69183333 36.15575,5.40683333 35.1390833,5.55683333" id="Path"></path>
                                <path d="M36.0506667,11.8710833 C35.7715,11.7160833 35.6048333,11.41525 35.6223333,11.0960833 C35.8156667,7.56441667 38.7365,4.79775 42.2715,4.79775 C45.9473333,4.79775 48.9381667,7.78858333 48.9381667,11.4644167 C48.9381667,14.5819167 46.8156667,17.2510833 43.7781667,17.9544167 C43.7156667,17.9685833 43.6523333,17.9760833 43.5898333,17.9760833 C43.3415,17.9760833 43.1015,17.8644167 42.9415,17.6660833 L43.8873333,16.19275 C45.9031667,15.5110833 47.2715,13.63275 47.2715,11.4644167 C47.2715,8.70775 45.0281667,6.46441667 42.2715,6.46441667 C39.7915,6.46441667 37.714,8.28191667 37.339,10.6860833 L36.0506667,11.8710833 Z" id="Path"></path>
                                <path d="M6.60158333,17.6654167 C6.44158333,17.8645833 6.20158333,17.97625 5.95325,17.97625 C5.89075,17.97625 5.82741667,17.96875 5.76491667,17.9545833 C2.72658333,17.25125 0.604916667,14.5820833 0.604916667,11.4645833 C0.604916667,7.78875 3.59575,4.79791667 7.27158333,4.79791667 C10.8065833,4.79791667 13.7274167,7.56458333 13.92075,11.09625 C13.93825,11.4154167 13.7715833,11.71625 13.4924167,11.87125 L12.2040833,10.68625 C11.8290833,8.28208333 9.75158333,6.46458333 7.27158333,6.46458333 C4.51408333,6.46458333 2.27158333,8.70708333 2.27158333,11.4645833 C2.27158333,13.6329167 3.63991667,15.51125 5.65575,16.1929167 L6.60158333,17.6654167 Z" id="Path"></path>
                                <path d="M4.91458333,14.65475 C4.70125,14.65475 4.48791667,14.5730833 4.32541667,14.4105833 C3.99958333,14.08475 3.99958333,13.5580833 4.32541667,13.23225 L4.91458333,12.6430833 C5.24041667,12.31725 5.76708333,12.31725 6.09291667,12.6430833 C6.41875,12.9689167 6.41875,13.4955833 6.09291667,13.8214167 L5.50375,14.4105833 C5.34125,14.5730833 5.12791667,14.65475 4.91458333,14.65475" id="Path"></path>
                                <path d="M9.03933333,10.53 C8.826,10.53 8.61266667,10.4483333 8.45016667,10.2858333 C8.12433333,9.96 8.12433333,9.43333333 8.45016667,9.1075 L9.03933333,8.51833333 C9.36516667,8.1925 9.89183333,8.1925 10.2176667,8.51833333 C10.5435,8.84416667 10.5435,9.37083333 10.2176667,9.69666667 L9.6285,10.2858333 C9.466,10.4483333 9.25266667,10.53 9.03933333,10.53" id="Path"></path>
                                <path d="M5.50375,10.53 C5.29041667,10.53 5.07708333,10.4483333 4.91458333,10.2858333 L4.32541667,9.69666667 C3.99958333,9.37083333 3.99958333,8.84416667 4.32541667,8.51833333 C4.65125,8.1925 5.17791667,8.1925 5.50375,8.51833333 L6.09291667,9.1075 C6.41875,9.43333333 6.41875,9.96 6.09291667,10.2858333 C5.93041667,10.4483333 5.71708333,10.53 5.50375,10.53" id="Path"></path>
                                <path d="M44.0393333,10.53 C43.826,10.53 43.6126667,10.4483333 43.4501667,10.2858333 C43.1243333,9.96 43.1243333,9.43333333 43.4501667,9.1075 L44.0393333,8.51833333 C44.3651667,8.1925 44.8918333,8.1925 45.2176667,8.51833333 C45.5435,8.84416667 45.5435,9.37083333 45.2176667,9.69666667 L44.6285,10.2858333 C44.466,10.4483333 44.2526667,10.53 44.0393333,10.53" id="Path"></path>
                                <path d="M40.50375,10.53 C40.2904167,10.53 40.0770833,10.4483333 39.9145833,10.2858333 L39.3254167,9.69666667 C38.9995833,9.37083333 38.9995833,8.84416667 39.3254167,8.51833333 C39.65125,8.1925 40.1779167,8.1925 40.50375,8.51833333 L41.0929167,9.1075 C41.41875,9.43333333 41.41875,9.96 41.0929167,10.2858333 C40.9304167,10.4483333 40.7170833,10.53 40.50375,10.53" id="Path"></path>
                                <path d="M44.6285,14.65475 C44.4151667,14.65475 44.2018333,14.5730833 44.0393333,14.4105833 L43.4501667,13.8214167 C43.1243333,13.4955833 43.1243333,12.9689167 43.4501667,12.6430833 C43.776,12.31725 44.3026667,12.31725 44.6285,12.6430833 L45.2176667,13.23225 C45.5435,13.5580833 45.5435,14.08475 45.2176667,14.4105833 C45.0551667,14.5730833 44.8418333,14.65475 44.6285,14.65475" id="Path"></path>
                                <path d="M13.3244167,11.9695833 L13.3235833,11.9695833 C13.1944167,12.0429167 13.0535833,12.0770833 12.91525,12.0770833 C12.6244167,12.0770833 12.3419167,11.9245833 12.1885833,11.6529167 C12.0310833,11.3729167 12.05275,11.0395833 12.2169167,10.7879167 C12.1844167,10.5620833 12.1360833,10.3329167 12.0710833,10.1020833 C12.0094167,9.88625 12.0385833,9.65375 12.1510833,9.45875 L16.2635833,2.33541667 C16.3744167,2.14375 16.5560833,2.00458333 16.77025,1.94708333 C16.9835833,1.89041667 17.2119167,1.92041667 17.40275,2.03041667 L25.5669167,6.74458333 C25.7585833,6.85541667 25.8985833,7.03708333 25.95525,7.25041667 C26.01275,7.46458333 25.98275,7.69208333 25.8719167,7.88291667 L25.48775,8.54791667 C25.3385833,8.80625 25.0644167,8.96458333 24.7660833,8.96458333 L23.2710833,7.34291667 L17.2910833,3.89041667 L13.88025,9.79791667" id="Path"></path>
                                <path d="M35.66325,9.79833333 L32.2524167,3.89083333 L26.2715833,7.34333333 L24.7765833,8.965 C24.4815833,8.965 24.2090833,8.80916667 24.0590833,8.555 C23.9065833,8.29583333 23.8990833,7.96583333 24.0499167,7.705 L24.0615833,7.68416667 C23.9824167,7.55583333 23.93825,7.40416667 23.93825,7.2475 C23.93825,6.95 24.0965833,6.67416667 24.3549167,6.52583333 L32.14075,2.03 C32.3324167,1.91916667 32.56075,1.89 32.77325,1.9475 C32.9865833,2.00416667 33.16825,2.14416667 33.2790833,2.335 L37.3924167,9.45916667 C37.5040833,9.65416667 37.53325,9.88583333 37.4715833,10.1025 C37.4024167,10.3491667 37.3515833,10.5941667 37.3190833,10.835 C37.45075,11.0816667 37.46575,11.3833333 37.32325,11.6358333 C37.1674167,11.9116667 36.8924167,12.0725 36.6049167,12.0725 C36.47575,12.0725 36.34325,12.04 36.21825,11.9691667 L35.66325,9.79833333 Z" id="Path"></path>
                            </g>
                        </g>
                    </g>
                </g>
            </g>
        </g>
    </g>
</svg>
