<svg xmlns="http://www.w3.org/2000/svg" viewBox="0 0 24 15">
    <g fill="#FFF" fill-rule="evenodd" stroke="#00B3EC" stroke-width=".5">
        <path d="M9.782 5.927c0-2.937 2.22-5.35 4.948-5.35h2.19c2.728 0 4.948 2.413 4.948 5.35M21.878 11.496l-.01.585c0 1.094-.827 1.983-1.842 1.983h-8.402c-1.015 0-1.842-.89-1.842-1.983v-.637M9.66 11.429c-.53 0-.961-.465-.961-1.036v-.68c0-.571.431-1.036.962-1.036h12.303c.53 0 .962.465.962 1.036v.68c0 .571-.431 1.036-.962 1.036H9.661z"/>
        <path d="M9.66 8.662c-.53 0-.961-.465-.961-1.036v-.68c0-.571.431-1.036.962-1.036h12.303c.53 0 .962.465.962 1.036v.68c0 .571-.431 1.036-.962 1.036H9.661z"/>
        <g>
            <path d="M2.042 8.753c0-2.905 2.22-5.291 4.947-5.291h2.19c2.729 0 4.948 2.386 4.948 5.291M14.137 11.557l-.01.58c0 1.08-.826 1.96-1.841 1.96H3.884c-1.016 0-1.842-.88-1.842-1.96v-.632M1.92 11.49c-.53 0-.962-.459-.962-1.024v-.672c0-.565.432-1.025.962-1.025h12.304c.53 0 .962.46.962 1.025v.672c0 .565-.432 1.025-.962 1.025H1.92z"/>
        </g>
    </g>
</svg>
