<svg xmlns="http://www.w3.org/2000/svg" viewBox="-253.9 334.3 102.5 124" enable-background="new -253.9 334.3 102.5 124"><g fill="#fe422d"><path d="m-215.2 369.1c3 0 5.4-2.4 5.4-5.4 0-3-2.4-5.4-5.4-5.4-3 0-5.4 2.4-5.4 5.4.1 3 2.5 5.4 5.4 5.4"/><path d="m-199.3 377.6c0 0 0 0 0 0-.1 0-.1 0-.1 0h.1"/><path d="m-206.3 377.7c0 0-.1-.1 0 0-.1 0-.1 0-.1 0h.1"/><path d="m-190.2 369.1c3 0 5.4-2.4 5.4-5.4 0-3-2.4-5.4-5.4-5.4-3 0-5.4 2.4-5.4 5.4.1 3 2.5 5.4 5.4 5.4"/><path d="m-173.3 445.1h-58.8c-1.3 0-2.4 1.1-2.4 2.4 0 1.3 1.1 2.4 2.4 2.4h58.8c1.3 0 2.4-1.1 2.4-2.4 0-1.3-1.1-2.4-2.4-2.4"/><path d="m-235.3 385.4h65.3c1.4 0 2.5-1.1 2.5-2.5 0-1.4-1.1-2.5-2.5-2.5h-1.4v-7.2c0-16.2-12.4-29.6-28.1-31.2.8-.8 1.4-2 1.4-3.2 0-2.5-2-4.5-4.5-4.5-2.5 0-4.5 2-4.5 4.5 0 1.3.5 2.4 1.4 3.2-15.7 1.6-28.1 15-28.1 31.2v7.2h-1.4c-1.4 0-2.5 1.1-2.5 2.5-.1 1.4 1 2.5 2.4 2.5m45.1-30.5c4.8 0 8.7 3.9 8.7 8.7s-3.9 8.7-8.7 8.7c-4.8 0-8.7-3.9-8.7-8.7s3.9-8.7 8.7-8.7m-21 22.3c-.3-.8 0-1.7.7-2.1.8-.4 1.8-.1 2.2.7l.4.8c.2.3.4.5.6.7.2.1.3.2.9.3 1.4.2 2.3.3 3.4.3h.2c1.1 0 2-.1 3.4-.3.6-.1.7-.2.9-.3.3-.2.5-.4.6-.7l.4-.8c.4-.8 1.4-1.1 2.2-.7.8.4 1.1 1.3.7 2.1 0 0-.2.5-.2.6-.2.4-.5.9-.9 1.3-1.3 1.5-3.4 1.9-7.1 1.9h-.2c-3.6 0-5.7-.5-7.1-1.9-.4-.4-.7-.9-.9-1.3l-.2-.6m-4-22.3c4.8 0 8.7 3.9 8.7 8.7s-3.9 8.7-8.7 8.7c-4.8 0-8.7-3.9-8.7-8.7s3.9-8.7 8.7-8.7"/><path d="m-184.4 453.5h-36.5c-1.3 0-2.4 1.1-2.4 2.4 0 1.3 1.1 2.4 2.4 2.4h36.5c1.3 0 2.4-1.1 2.4-2.4 0-1.3-1.1-2.4-2.4-2.4"/><path d="m-159.2 394.4h-5.4c-1.3-2.3-3.8-3.9-6.6-3.9 0 0-.1 0-.1 0h-62.7c0 0-.1 0-.1 0-2.9 0-5.3 1.6-6.6 3.9h-5.4c-4.3 0-7.8 3.5-7.8 7.8v14.9c0 1.6 1.3 2.9 2.9 2.9 1.6 0 2.9-1.3 2.9-2.9v-14.9c0-1.1.9-2 2-2h4.7c.6 2.1 2 3.8 3.9 4.8l-7.4 29.8c-1.2 3.3.7 7.1 3.5 7.1h77.6c2.8 0 4.7-3.8 3.5-7.1l-7.4-29.8c1.9-1 3.3-2.7 3.9-4.8h4.5c1.1 0 2.2.9 2.2 2v14.9c0 1.6 1.3 2.9 2.9 2.9s2.9-1.3 2.9-2.9v-14.9c-.1-4.3-3.6-7.8-7.9-7.8m-31.2 30.9h-4.8v-14.2l-7 7.1h-1l-7-7.1v14.2h-4.8v-24.1h1.3l10.9 10.8 11.1-10.8h1.3v24.1"/></g></svg>