<svg xmlns="http://www.w3.org/2000/svg" viewBox="0 0 110 110">
    <g fill="none" fill-rule="evenodd">
        <circle cx="55" cy="55" r="55" fill="#F9F9F9"/>
        <path fill="#7AAA4B" d="M26.032 61.421l3.695 7.044 8.12 3.214 17.24-3.51c8.262-3.147 13.94-5.706 17.034-7.677 3.094-1.971 5.232-4.391 6.415-7.26l.357-5.102 2.226-2.525-4.356-.305-.186 2.668-18.331 10.588L42.889 62.6l-9.688.604-7.169-1.783z"/>
        <path fill="#95D159" d="M28.235 62.362l2.694-2.42 1.425-5.797 4.862-2.837 5.767 1.051 4.217-4.078h6.035l3.439-3.983 5.801-.031c.53-1.37.919-2.324 1.169-2.858.633-1.353 2.136-2.245 3.564-2.803 2.274-.888 4.278-.257 6.012 1.893l2.052 3.799 1.1-1.665h3.058l-3.059 3.906-12.96 7.606-12.492 5.797-9.419 3.511H30.929l-2.694-1.09z"/>
        <path fill="#000" fill-rule="nonzero" d="M65.989 53.843a1.003 1.003 0 0 1-.547-1.206 6.32 6.32 0 0 0-3.472-7.665 7.286 7.286 0 0 0-.615-.241 1.003 1.003 0 0 1-.638-1.248c.093-.308.205-.609.34-.91 1.87-4.202 6.804-6.089 10.998-4.222a8.345 8.345 0 0 1 4.835 8.907 1.023 1.023 0 0 1-.353.62 36.852 36.852 0 0 1-3.208 2.337c-.095.067-2.462 1.597-6.156 3.674a1.008 1.008 0 0 1-.753.092c-.167-.042-.244-.065-.322-.089l-.11-.049zm-3.032-10.621a8.333 8.333 0 0 1 4.752 8.06c2.767-1.593 4.507-2.723 4.525-2.737a35.442 35.442 0 0 0 2.727-1.97 6.338 6.338 0 0 0-3.72-6.397c-3.133-1.395-6.806-.03-8.284 3.044z"/>
        <path fill="#000" fill-rule="nonzero" d="M56.007 58.364l-.073-.032a1.02 1.02 0 0 1-.476-1.241c1.194-3.125-.267-6.654-3.323-8.026a1.007 1.007 0 0 1-.528-1.274l.036-.105c.04-.114.075-.218.124-.328 1.871-4.202 6.805-6.088 10.998-4.222 3.965 1.766 5.92 6.347 4.442 10.429a.953.953 0 0 1-.455.53 128.219 128.219 0 0 1-9.038 4.591 1 1 0 0 1-.701.05 8.107 8.107 0 0 1-1.006-.372zm-2.16-10.66c3.022 1.816 4.56 5.369 3.863 8.802a129.905 129.905 0 0 0 7.76-3.956c.89-3.007-.595-6.285-3.491-7.574a6.339 6.339 0 0 0-8.133 2.728z"/>
        <path fill="#000" fill-rule="nonzero" d="M46.163 62.454a8.85 8.85 0 0 1-1.637-.97 1 1 0 0 1-.342-1.126 6.298 6.298 0 0 0-2.155-7.133 1 1 0 0 1-.341-1.127c.075-.218.155-.423.249-.633 1.87-4.202 6.805-6.089 10.998-4.222s6.088 6.805 4.222 10.998c-.098.22-.214.43-.33.642a1.022 1.022 0 0 1-.477.433c-3.161 1.395-6.185 2.533-8.985 3.388a.97.97 0 0 1-.628-.016c-.214-.085-.392-.153-.574-.234zm.14-2.182c.266.162.532.303.81.416 2.543-.795 5.277-1.822 8.131-3.069.028-.063.07-.132.099-.196a6.338 6.338 0 0 0-3.208-8.358c-3.143-1.399-6.829-.03-8.293 3.062a8.305 8.305 0 0 1 2.46 8.145z"/>
        <g fill="#000" fill-rule="nonzero">
            <path d="M33.837 64.42a1.006 1.006 0 0 1-.507-1.32c.171-.383.576-.63 1.017-.587.283.028.58.05.871.06a.994.994 0 0 1 .943 1.054 1.149 1.149 0 0 1-.083.357.99.99 0 0 1-.963.59c-.332-.017-.66-.042-.974-.073a.84.84 0 0 1-.304-.08z"/>
            <path d="M28.152 62.83a8.254 8.254 0 0 1-1.054-.556.998.998 0 0 1-.004-1.688 81.493 81.493 0 0 1 3.387-2.027c.28-.16.629-.158.925-.037.298.143.502.42.557.74a6.359 6.359 0 0 0 1.429 3.11c.184.028.37.055.563.087.55.07.939.571.86 1.116a.988.988 0 0 1-1.116.86c-.342-.042-.671-.09-1.005-.151-.04-.007-.068-.02-.109-.027a13.986 13.986 0 0 1-2.608-.756 15.592 15.592 0 0 1-1.825-.67zm2.177-1.865c-.209.126-.414.242-.593.349.414.151.741.253.837.285-.09-.216-.172-.427-.244-.634zM39.6 64.26a1.014 1.014 0 0 1-.585-.774 1.003 1.003 0 0 1 .854-1.13c.048-.012.093-.014.142-.025a41.154 41.154 0 0 0 3.914-.753l.001.022c7.696-1.795 15.082-5.501 21.465-9.02 4.25-2.343 9.012-4.973 12.6-8.729-.586.013-1.18.066-1.772.12l-.522.041-.152-1.994.513-.046c1.329-.108 2.828-.23 4.214.049.34.074.618.308.745.638a1.03 1.03 0 0 1-.158.97c-3.913 4.88-9.527 7.974-14.486 10.703-7.614 4.195-16.654 8.665-26.054 9.986-.058.007-.116.014-.164.025-.196.023-.39-.009-.555-.082z"/>
            <path d="M38.184 64.418a.984.984 0 0 1-.588-.82.947.947 0 0 1 .081-.5c.142-.32.454-.553.824-.597.33-.028.66-.056.998-.102a.995.995 0 0 1 1.113.867.995.995 0 0 1-.868 1.114l-.009-.004c-.347.042-.7.071-1.043.105 0 0-.009-.005-.013.005a.861.861 0 0 1-.495-.068z"/>
            <path d="M35.251 64.514a1.006 1.006 0 0 1-.597-.945.986.986 0 0 1 .09-.375c.16-.357.524-.61.945-.598.292.01.596.014.896.005a1.006 1.006 0 0 1 1.015.988 1.006 1.006 0 0 1-.988 1.016c-.331.006-.658.003-.98-.01a.867.867 0 0 1-.38-.081z"/>
            <path d="M36.706 64.516a1.005 1.005 0 0 1-.594-.878 1.005 1.005 0 0 1 .965-1.037c.309-.005.622-.019.93-.046a.993.993 0 0 1 1.066.924.988.988 0 0 1-.924 1.067c-.339.023-.674.038-1.01.053a1.122 1.122 0 0 1-.433-.083z"/>
        </g>
        <path fill="#000" fill-rule="nonzero" d="M32.48 64.222a.995.995 0 0 1-.314-.228 8.322 8.322 0 0 1-1.564-9.125c1.871-4.202 6.805-6.089 10.998-4.222s6.089 6.805 4.222 10.998a8.728 8.728 0 0 1-.843 1.475c-.139.19-.343.329-.578.389-4.583 1.123-8.52 1.384-11.707.775a.534.534 0 0 1-.213-.062zm8.303-11.738a6.338 6.338 0 0 0-8.358 3.208c-1 2.247-.611 4.84.972 6.693 2.76.463 6.174.22 10.16-.719.163-.267.317-.538.443-.821 1.42-3.188-.02-6.938-3.217-8.361z"/>
        <path fill="#000" fill-rule="nonzero" d="M32.48 64.222a.995.995 0 0 1-.314-.228 8.322 8.322 0 0 1-1.564-9.125c1.871-4.202 6.805-6.089 10.998-4.222s6.089 6.805 4.222 10.998a8.728 8.728 0 0 1-.843 1.475c-.139.19-.343.329-.578.389-4.583 1.123-8.52 1.384-11.707.775a.534.534 0 0 1-.213-.062zm8.303-11.738a6.338 6.338 0 0 0-8.358 3.208c-1 2.247-.611 4.84.972 6.693 2.76.463 6.174.22 10.16-.719.163-.267.317-.538.443-.821 1.42-3.188-.02-6.938-3.217-8.361z"/>
        <path fill="#000" fill-rule="nonzero" d="M46.163 62.454a8.85 8.85 0 0 1-1.637-.97 1 1 0 0 1-.342-1.126 6.298 6.298 0 0 0-2.155-7.133 1 1 0 0 1-.341-1.127c.075-.218.155-.423.249-.633 1.87-4.202 6.805-6.089 10.998-4.222s6.088 6.805 4.222 10.998c-.098.22-.214.43-.33.642a1.022 1.022 0 0 1-.477.433c-3.161 1.395-6.185 2.533-8.985 3.388a.97.97 0 0 1-.628-.016c-.214-.085-.392-.153-.574-.234zm.14-2.182c.266.162.532.303.81.416 2.543-.795 5.277-1.822 8.131-3.069.028-.063.07-.132.099-.196a6.338 6.338 0 0 0-3.208-8.358c-3.143-1.399-6.829-.03-8.293 3.062a8.305 8.305 0 0 1 2.46 8.145z"/>
        <g fill="#000" fill-rule="nonzero">
            <path d="M65.14 47.686a1.004 1.004 0 0 1-.437-.37s-.01-.004-.005-.013a6.495 6.495 0 0 0-.538-.71.994.994 0 0 1 .102-1.41 1.002 1.002 0 0 1 1.41.102c.26.302.503.617.71.94.187.291.203.648.07.95-.078.173-.201.327-.37.437a.971.971 0 0 1-.942.074z"/>
            <path d="M64.455 46.79a.978.978 0 0 1-.338-.25 5.8 5.8 0 0 0-.664-.645.997.997 0 1 1 1.274-1.535c.293.251.578.52.87.848a1 1 0 0 1-.08 1.409.968.968 0 0 1-1.062.173z"/>
            <path d="M66.04 49.673a.99.99 0 0 1-.558-.642 6.516 6.516 0 0 0-.737-1.663.987.987 0 0 1-.064-.938.939.939 0 0 1 .379-.433 1.01 1.01 0 0 1 1.384.31c.429.683.752 1.407.97 2.172a1.001 1.001 0 0 1-.692 1.235 1 1 0 0 1-.683-.04z"/>
            <path d="M66.197 52.983a1.003 1.003 0 0 1-.577-1.088l.004-.01a6.264 6.264 0 0 0 .06-1.833.998.998 0 0 1 .887-1.105.998.998 0 0 1 1.105.886c.09.806.064 1.626-.08 2.416-.1.546-.622.906-1.168.805a.986.986 0 0 1-.231-.07z"/>
            <path d="M66.258 50.756a1.005 1.005 0 0 1-.59-.788 7.34 7.34 0 0 0-.17-.875 1.01 1.01 0 0 1 .702-1.23 1 1 0 0 1 1.231.7c.097.372.177.758.226 1.14a.98.98 0 0 1-.075.537 1.005 1.005 0 0 1-1.324.516z"/>
            <path d="M33.365 71.479c-3.49-1.554-6.013-4.418-7.31-8.29-.217-.644-.297-1.03-.274-1.326a.992.992 0 0 1 .677-.881l.101-.032c.474-.325 1.548-1.018 3.927-2.378.28-.16.629-.158.925-.037.298.143.503.42.557.74a6.25 6.25 0 0 0 1.438 3.115c2.76.462 6.174.22 10.16-.72.164-.267.317-.538.443-.82a8.7 8.7 0 0 0 .193-.484.994.994 0 0 1 .653-.63c.304-.093.638-.032.893.158.45.342.891.604 1.374.798 2.543-.795 5.277-1.821 8.131-3.068.029-.064.07-.133.099-.197.032-.073.056-.15.084-.215l.04-.113c.1-.251.293-.461.547-.566a.952.952 0 0 1 .803.017c.146.065.296.121.437.173a123.743 123.743 0 0 0 8.203-4.163 6.11 6.11 0 0 0 .14-.584l.007-.018a1 1 0 0 1 1.739-.463c2.981-1.705 4.864-2.936 4.89-2.946a35.442 35.442 0 0 0 2.728-1.97 6.274 6.274 0 0 0-.498-3.134c-.13-.299-.1-.636.057-.916.167-.276.454-.455.775-.487a39 39 0 0 1 4.516-.135.75.75 0 0 1 .166.02c.04.006.29.062.563.184.768.342.985.887 1.042 1.176.07.337.043.84-.43 1.384-.018.09-.036.204-.057.325-.402 2.525-1.637 10.218-8.708 14.962-.17.11-14.571 9.002-28.175 12.216-3.974.935-7.731.696-10.856-.695zm-5.454-9.04a.647.647 0 0 0 .036.114c1.116 3.321 3.263 5.777 6.232 7.099 2.731 1.216 6.048 1.412 9.597.573 13.284-3.138 27.411-11.856 27.55-11.947 6.32-4.236 7.445-11.288 7.817-13.597.05-.284.084-.51.114-.65.01-.05.022-.099.038-.135a33.087 33.087 0 0 0-2.54.05 8.412 8.412 0 0 1 .148 3.307 1.023 1.023 0 0 1-.353.62 36.852 36.852 0 0 1-3.208 2.337c-.095.067-2.462 1.597-6.156 3.674-.07.034-.14.069-.215.09-.056.052-.117.09-.178.129a128.219 128.219 0 0 1-9.039 4.59 1 1 0 0 1-.7.05c-.041-.008-.078-.024-.118-.03a1.225 1.225 0 0 1-.096.165 1.022 1.022 0 0 1-.477.433c-3.16 1.395-6.185 2.533-8.985 3.388a.97.97 0 0 1-.628-.016 6.727 6.727 0 0 1-1.16-.517c-.182.335-.378.653-.592.962-.14.19-.344.329-.578.389-4.583 1.123-8.52 1.384-11.708.775a.982.982 0 0 1-.537-.294 8.227 8.227 0 0 1-1.833-3.038 51.841 51.841 0 0 0-2.431 1.479z"/>
        </g>
    </g>
</svg>
